<svg width="24" height="24" viewBox="0 0 24 24" fill="none" xmlns="http://www.w3.org/2000/svg">
<path d="M21.5273 6.32695V10.1188C20.8648 10.0541 20.004 9.90356 19.0517 9.55462C17.8083 9.09875 16.8827 8.47546 16.2765 7.99286V15.6568L16.261 15.6329C16.2709 15.7848 16.2765 15.9396 16.2765 16.0958C16.2765 19.9018 13.1806 23 9.37433 23C5.56808 23 2.47217 19.9018 2.47217 16.0958C2.47217 12.2898 5.56808 9.19023 9.37433 9.19023C9.74707 9.19023 10.1128 9.21976 10.4701 9.27744V13.0145C10.1269 12.8921 9.75833 12.8259 9.37433 12.8259C7.57248 12.8259 6.1054 14.292 6.1054 16.0958C6.1054 17.8996 7.57248 19.3657 9.37433 19.3657C11.1762 19.3657 12.6433 17.8982 12.6433 16.0958C12.6433 16.0283 12.6418 15.9607 12.6376 15.8932V1H16.4256C16.4397 1.3208 16.4523 1.64443 16.4664 1.96522C16.4917 2.59697 16.7167 3.2034 17.1092 3.70008C17.5691 4.28398 18.2485 4.96214 19.2022 5.50384C20.0954 6.00895 20.9337 6.22705 21.5273 6.32977V6.32695Z" fill="#8E9867"/>
</svg>
